<svg xmlns="http://www.w3.org/2000/svg" viewBox="0 0 1000 520" font-family="Inter, Segoe UI, system-ui, sans-serif">
  <defs>
    <linearGradient id="bbg" x1="0%" y1="0%" x2="100%" y2="0%">
      <stop offset="0%" stop-color="#fef2f2"/>
      <stop offset="50%" stop-color="#ffffff"/>
      <stop offset="100%" stop-color="#ecfdf5"/>
    </linearGradient>
  </defs>

  <rect width="1000" height="520" fill="url(#bbg)"/>

  <text x="500" y="38" text-anchor="middle" fill="#1e1b4b" font-size="22" font-weight="700">A Day in Your School: Before vs After</text>

  <!-- Before column header -->
  <rect x="30" y="60" width="430" height="45" rx="10" fill="#ef4444" opacity="0.12"/>
  <text x="245" y="89" text-anchor="middle" fill="#dc2626" font-size="18" font-weight="700">Before (Paper + Excel + WhatsApp)</text>

  <!-- After column header -->
  <rect x="540" y="60" width="430" height="45" rx="10" fill="#10b981" opacity="0.12"/>
  <text x="755" y="89" text-anchor="middle" fill="#059669" font-size="18" font-weight="700">After (EdunodeX)</text>

  <!-- Arrow in center -->
  <polygon points="488,270 512,255 512,285" fill="#7c3aed"/>

  <!-- Row 1: Fee reminders -->
  <rect x="40" y="120" width="410" height="44" rx="8" fill="#fef2f2" stroke="#fecaca" stroke-width="1"/>
  <text x="58" y="147" fill="#7f1d1d" font-size="12">Staff sends fee reminders one by one</text>
  <text x="438" y="147" text-anchor="end" fill="#dc2626" font-size="12" font-weight="700">3 hrs/day</text>

  <rect x="550" y="120" width="410" height="44" rx="8" fill="#ecfdf5" stroke="#a7f3d0" stroke-width="1"/>
  <text x="568" y="147" fill="#064e3b" font-size="12">AI sends WhatsApp reminders automatically</text>
  <text x="948" y="147" text-anchor="end" fill="#059669" font-size="12" font-weight="700">0 effort</text>

  <!-- Row 2: Attendance -->
  <rect x="40" y="176" width="410" height="44" rx="8" fill="#fef2f2" stroke="#fecaca" stroke-width="1"/>
  <text x="58" y="203" fill="#7f1d1d" font-size="12">Manual attendance in paper registers</text>
  <text x="438" y="203" text-anchor="end" fill="#dc2626" font-size="12" font-weight="700">45 min/day</text>

  <rect x="550" y="176" width="410" height="44" rx="8" fill="#ecfdf5" stroke="#a7f3d0" stroke-width="1"/>
  <text x="568" y="203" fill="#064e3b" font-size="12">Face recognition + parent WhatsApp alert</text>
  <text x="948" y="203" text-anchor="end" fill="#059669" font-size="12" font-weight="700">Instant</text>

  <!-- Row 3: Report cards -->
  <rect x="40" y="232" width="410" height="44" rx="8" fill="#fef2f2" stroke="#fecaca" stroke-width="1"/>
  <text x="58" y="259" fill="#7f1d1d" font-size="12">Excel report cards typed manually</text>
  <text x="438" y="259" text-anchor="end" fill="#dc2626" font-size="12" font-weight="700">2+ weeks</text>

  <rect x="550" y="232" width="410" height="44" rx="8" fill="#ecfdf5" stroke="#a7f3d0" stroke-width="1"/>
  <text x="568" y="259" fill="#064e3b" font-size="12">AI generates report cards with remarks</text>
  <text x="948" y="259" text-anchor="end" fill="#059669" font-size="12" font-weight="700">2 clicks</text>

  <!-- Row 4: Parent queries -->
  <rect x="40" y="288" width="410" height="44" rx="8" fill="#fef2f2" stroke="#fecaca" stroke-width="1"/>
  <text x="58" y="315" fill="#7f1d1d" font-size="12">Parent queries in chaotic WhatsApp groups</text>
  <text x="438" y="315" text-anchor="end" fill="#dc2626" font-size="12" font-weight="700">Unmanaged</text>

  <rect x="550" y="288" width="410" height="44" rx="8" fill="#ecfdf5" stroke="#a7f3d0" stroke-width="1"/>
  <text x="568" y="315" fill="#064e3b" font-size="12">WhatsApp bot answers in Hindi/English</text>
  <text x="948" y="315" text-anchor="end" fill="#059669" font-size="12" font-weight="700">24/7</text>

  <!-- Row 5: Fee collection -->
  <rect x="40" y="344" width="410" height="44" rx="8" fill="#fef2f2" stroke="#fecaca" stroke-width="1"/>
  <text x="58" y="371" fill="#7f1d1d" font-size="12">Cash/cheque collection with manual ledger</text>
  <text x="438" y="371" text-anchor="end" fill="#dc2626" font-size="12" font-weight="700">Error-prone</text>

  <rect x="550" y="344" width="410" height="44" rx="8" fill="#ecfdf5" stroke="#a7f3d0" stroke-width="1"/>
  <text x="568" y="371" fill="#064e3b" font-size="12">UPI + Razorpay, auto reconciliation</text>
  <text x="948" y="371" text-anchor="end" fill="#059669" font-size="12" font-weight="700">Zero errors</text>

  <!-- Row 6: Dropouts -->
  <rect x="40" y="400" width="410" height="44" rx="8" fill="#fef2f2" stroke="#fecaca" stroke-width="1"/>
  <text x="58" y="427" fill="#7f1d1d" font-size="12">Dropout discovered after student leaves</text>
  <text x="438" y="427" text-anchor="end" fill="#dc2626" font-size="12" font-weight="700">Too late</text>

  <rect x="550" y="400" width="410" height="44" rx="8" fill="#ecfdf5" stroke="#a7f3d0" stroke-width="1"/>
  <text x="568" y="427" fill="#064e3b" font-size="12">AI flags dropout risk before it happens</text>
  <text x="948" y="427" text-anchor="end" fill="#059669" font-size="12" font-weight="700">Predictive</text>

  <!-- Bottom CTA -->
  <rect x="300" y="462" width="400" height="42" rx="10" fill="#7c3aed"/>
  <text x="500" y="488" text-anchor="middle" fill="#ffffff" font-size="14" font-weight="600">Try EdunodeX Free for 14 Days — edunodex.in</text>
</svg>
